<svg width="64" height="64" viewBox="0 0 64 64" fill="none" xmlns="http://www.w3.org/2000/svg">
<path d="M22.5487 49.0665C19.69 49.0665 17.3647 46.7412 17.3647 43.8825C17.3647 41.5998 19.882 37.3332 22.5487 33.7278C25.2154 37.3332 27.7327 41.5998 27.7327 43.8825C27.7327 44.5633 27.5986 45.2374 27.3381 45.8663C27.0776 46.4953 26.6957 47.0668 26.2143 47.5481C25.7329 48.0295 25.1615 48.4114 24.5325 48.6719C23.9036 48.9324 23.2295 49.0665 22.5487 49.0665ZM31.9994 10.6665C29.1978 10.6665 26.4237 11.2183 23.8354 12.2904C21.2472 13.3625 18.8954 14.9339 16.9144 16.9149C12.9136 20.9157 10.666 26.3419 10.666 31.9998C10.666 35.7332 11.626 39.2105 13.3113 42.2612C13.6527 40.5332 14.5273 38.5492 15.594 36.6292C15.1536 35.1256 14.9309 33.5666 14.9327 31.9998C14.9327 27.4735 16.7308 23.1325 19.9314 19.9319C23.132 16.7313 27.473 14.9332 31.9994 14.9332C36.5257 14.9332 40.8667 16.7313 44.0673 19.9319C47.2679 23.1325 49.066 27.4735 49.066 31.9998C49.066 36.5262 47.2679 40.8672 44.0673 44.0678C40.8667 47.2684 36.5257 49.0665 31.9994 49.0665C31.4874 49.0665 30.9967 49.0665 30.4847 48.9812C29.482 50.5598 28.0314 51.7972 26.3247 52.5438C28.138 53.0558 30.0367 53.3332 31.9994 53.3332C34.8009 53.3332 37.575 52.7814 40.1633 51.7093C42.7515 50.6372 45.1033 49.0658 47.0843 47.0848C49.0653 45.1038 50.6367 42.752 51.7088 40.1638C52.7809 37.5755 53.3327 34.8014 53.3327 31.9998C53.3327 29.1983 52.7809 26.4242 51.7088 23.8359C50.6367 21.2476 49.0653 18.8959 47.0843 16.9149C45.1033 14.9339 42.7515 13.3625 40.1633 12.2904C37.575 11.2183 34.8009 10.6665 31.9994 10.6665ZM31.9994 36.2665C31.1247 36.2665 30.2714 36.3518 29.4607 36.5225C30.2074 37.8665 30.8687 39.2532 31.338 40.5332H31.9994C34.666 40.5332 36.9487 41.5998 37.9087 43.1572L40.938 40.1278C39.018 37.8025 35.7327 36.2665 31.9994 36.2665ZM39.466 23.4665C37.7594 23.4665 36.266 24.9598 36.266 26.6665C36.266 28.3732 37.7594 29.8665 39.466 29.8665C41.1727 29.8665 42.666 28.3732 42.666 26.6665C42.666 24.9598 41.1727 23.4665 39.466 23.4665ZM27.7327 26.6665C27.7327 24.9598 26.2393 23.4665 24.5327 23.4665C22.826 23.4665 21.3327 24.9598 21.3327 26.6665C21.3327 28.3732 22.826 29.8665 24.5327 29.8665C26.2393 29.8665 27.7327 28.3732 27.7327 26.6665Z" fill="white"/>
</svg>
