<svg width="44" height="44" viewBox="0 0 44 44" fill="none" xmlns="http://www.w3.org/2000/svg">
<path d="M41.3327 21.9998C41.3327 32.6773 32.6769 41.3332 21.9993 41.3332C11.3218 41.3332 2.66602 32.6773 2.66602 21.9998C2.66602 11.3223 11.3218 2.6665 21.9993 2.6665C32.6769 2.6665 41.3327 11.3223 41.3327 21.9998Z" stroke="white" stroke-width="4" stroke-linecap="round" stroke-linejoin="round"/>
<path d="M22.0004 31.4815C25.5086 31.4815 28.5735 29.5757 30.2138 26.7407H13.7871C14.6191 28.1827 15.8163 29.3801 17.2581 30.2124C18.7 31.0446 20.3356 31.4823 22.0004 31.4815Z" fill="white" stroke="#E0E0E0" stroke-width="3" stroke-linecap="round"/>
<path d="M31.4805 18.4444L26.7398 16.074L31.4805 13.7036M12.5176 18.4444L17.2583 16.074L12.5176 13.7036" stroke="white" stroke-width="3" stroke-linecap="round" stroke-linejoin="round"/>
</svg>
