<svg width="44" height="44" viewBox="0 0 44 44" fill="none" xmlns="http://www.w3.org/2000/svg">
<path d="M21.9994 0.666504C19.1978 0.666504 16.4237 1.21831 13.8354 2.29041C11.2472 3.36251 8.89539 4.93391 6.9144 6.91489C2.91363 10.9157 0.666016 16.3419 0.666016 21.9998C0.666016 27.6578 2.91363 33.084 6.9144 37.0848C8.89539 39.0658 11.2472 40.6372 13.8354 41.7093C16.4237 42.7814 19.1978 43.3332 21.9994 43.3332C27.6573 43.3332 33.0835 41.0856 37.0843 37.0848C41.0851 33.084 43.3327 27.6578 43.3327 21.9998C43.3327 19.1983 42.7809 16.4242 41.7088 13.8359C40.6367 11.2476 39.0653 8.89588 37.0843 6.91489C35.1033 4.93391 32.7515 3.36251 30.1633 2.29041C27.575 1.21831 24.8009 0.666504 21.9994 0.666504ZM21.9994 39.0665C17.473 39.0665 13.132 37.2684 9.93139 34.0678C6.73077 30.8672 4.93268 26.5262 4.93268 21.9998C4.93268 17.4735 6.73077 13.1325 9.93139 9.93188C13.132 6.73126 17.473 4.93317 21.9994 4.93317C26.5257 4.93317 30.8667 6.73126 34.0673 9.93188C37.2679 13.1325 39.066 17.4735 39.066 21.9998C39.066 26.5262 37.2679 30.8672 34.0673 34.0678C30.8667 37.2684 26.5257 39.0665 21.9994 39.0665ZM14.5327 19.8665C13.684 19.8665 12.8701 19.5294 12.2699 18.9292C11.6698 18.3291 11.3327 17.5152 11.3327 16.6665C11.3327 15.8178 11.6698 15.0039 12.2699 14.4038C12.8701 13.8036 13.684 13.4665 14.5327 13.4665C15.3814 13.4665 16.1953 13.8036 16.7954 14.4038C17.3955 15.0039 17.7327 15.8178 17.7327 16.6665C17.7327 17.5152 17.3955 18.3291 16.7954 18.9292C16.1953 19.5294 15.3814 19.8665 14.5327 19.8665ZM32.666 16.6665C32.666 17.5152 32.3289 18.3291 31.7288 18.9292C31.1286 19.5294 30.3147 19.8665 29.466 19.8665C28.6173 19.8665 27.8034 19.5294 27.2033 18.9292C26.6032 18.3291 26.266 17.5152 26.266 16.6665C26.266 15.8178 26.6032 15.0039 27.2033 14.4038C27.8034 13.8036 28.6173 13.4665 29.466 13.4665C30.3147 13.4665 31.1286 13.8036 31.7288 14.4038C32.3289 15.0039 32.666 15.8178 32.666 16.6665ZM30.5327 26.2665V30.5332H13.466V26.2665H30.5327Z" fill="white"/>
</svg>
