<svg width="45" height="44" viewBox="0 0 45 44" fill="none" xmlns="http://www.w3.org/2000/svg">
<path d="M22.5007 0.666504C10.519 0.666504 0.833984 10.2025 0.833984 21.9998C0.833984 33.7972 10.519 43.3332 22.5007 43.3332C28.247 43.3332 33.758 41.0856 37.8213 37.0848C41.8846 33.084 44.1673 27.6578 44.1673 21.9998C44.1673 10.2025 34.4173 0.666504 22.5007 0.666504ZM22.5007 39.0665C17.9036 39.0665 13.4948 37.2684 10.2441 34.0678C6.9935 30.8672 5.16732 26.5262 5.16732 21.9998C5.16732 17.4735 6.9935 13.1325 10.2441 9.93188C13.4948 6.73126 17.9036 4.93317 22.5007 4.93317C27.0977 4.93317 31.5065 6.73126 34.7572 9.93188C38.0078 13.1325 39.834 17.4735 39.834 21.9998C39.834 26.5262 38.0078 30.8672 34.7572 34.0678C31.5065 37.2684 27.0977 39.0665 22.5007 39.0665ZM31.5573 12.9545L29.2607 15.2158L26.964 12.9545L24.6673 15.2158L26.964 17.4772L24.6673 19.7385L26.964 21.9998L29.2607 19.7385L31.5573 21.9998L33.854 19.7385L31.5573 17.4772L33.854 15.2158L31.5573 12.9545ZM13.444 21.9998L15.7407 19.7385L18.0373 21.9998L20.334 19.7385L18.0373 17.4772L20.334 15.2158L18.0373 12.9545L15.7407 15.2158L13.444 12.9545L11.1473 15.2158L13.444 17.4772L11.1473 19.7385L13.444 21.9998ZM22.5007 26.2665C17.4523 26.2665 13.1623 29.3812 11.429 33.7332H33.5723C31.839 29.3812 27.549 26.2665 22.5007 26.2665Z" fill="white"/>
</svg>
