<svg width="45" height="44" viewBox="0 0 45 44" fill="none" xmlns="http://www.w3.org/2000/svg">
<path d="M39.834 21.9998C39.834 17.4735 38.0078 13.1325 34.7572 9.93188C31.5065 6.73126 27.0977 4.93317 22.5006 4.93317C17.9036 4.93317 13.4948 6.73126 10.2441 9.93188C6.9935 13.1325 5.16732 17.4735 5.16732 21.9998C5.16732 26.5262 6.9935 30.8672 10.2441 34.0678C13.4948 37.2684 17.9036 39.0665 22.5006 39.0665C27.0977 39.0665 31.5065 37.2684 34.7572 34.0678C38.0078 30.8672 39.834 26.5262 39.834 21.9998ZM44.1673 21.9998C44.1673 27.6578 41.8846 33.084 37.8213 37.0848C33.758 41.0856 28.247 43.3332 22.5006 43.3332C19.6553 43.3332 16.8379 42.7814 14.2092 41.7093C11.5805 40.6372 9.19194 39.0658 7.18 37.0848C3.11672 33.084 0.833984 27.6578 0.833984 21.9998C0.833984 16.3419 3.11672 10.9157 7.18 6.91489C11.2433 2.91412 16.7543 0.666504 22.5006 0.666504C25.346 0.666504 28.1634 1.21831 30.7921 2.29041C33.4208 3.36251 35.8094 4.93391 37.8213 6.91489C39.8332 8.89588 41.4292 11.2476 42.518 13.8359C43.6069 16.4242 44.1673 19.1983 44.1673 21.9998ZM18.1673 16.6665C18.1673 18.3732 16.6507 19.8665 14.9173 19.8665C13.184 19.8665 11.6673 18.3732 11.6673 16.6665C11.6673 14.9598 13.184 13.4665 14.9173 13.4665C16.6507 13.4665 18.1673 14.9598 18.1673 16.6665ZM33.334 16.6665C33.334 18.3732 31.8173 19.8665 30.084 19.8665C28.3507 19.8665 26.834 18.3732 26.834 16.6665C26.834 14.9598 28.3507 13.4665 30.084 13.4665C31.8173 13.4665 33.334 14.9598 33.334 16.6665ZM22.5006 33.1572C18.709 33.1572 15.3723 31.5998 13.4223 29.2958L16.499 26.2665C17.474 27.8025 19.7923 28.8905 22.5006 28.8905C25.209 28.8905 27.5273 27.8025 28.5023 26.2665L31.579 29.2958C29.629 31.5998 26.2923 33.1572 22.5006 33.1572Z" fill="white"/>
</svg>
