<svg width="44" height="44" viewBox="0 0 44 44" fill="none" xmlns="http://www.w3.org/2000/svg">
<path d="M12.5487 39.0665C9.69002 39.0665 7.36468 36.7412 7.36468 33.8825C7.36468 31.5998 9.88202 27.3332 12.5487 23.7278C15.2154 27.3332 17.7327 31.5998 17.7327 33.8825C17.7327 34.5633 17.5986 35.2374 17.3381 35.8663C17.0776 36.4953 16.6957 37.0668 16.2143 37.5481C15.7329 38.0295 15.1615 38.4114 14.5325 38.6719C13.9036 38.9324 13.2295 39.0665 12.5487 39.0665ZM21.9994 0.666504C19.1978 0.666504 16.4237 1.21831 13.8354 2.29041C11.2472 3.36251 8.89539 4.93391 6.9144 6.91489C2.91363 10.9157 0.666016 16.3419 0.666016 21.9998C0.666016 25.7332 1.62602 29.2105 3.31135 32.2612C3.65268 30.5332 4.52735 28.5492 5.59402 26.6292C5.15364 25.1256 4.93094 23.5666 4.93268 21.9998C4.93268 17.4735 6.73077 13.1325 9.93139 9.93188C13.132 6.73126 17.473 4.93317 21.9994 4.93317C26.5257 4.93317 30.8667 6.73126 34.0673 9.93188C37.2679 13.1325 39.066 17.4735 39.066 21.9998C39.066 26.5262 37.2679 30.8672 34.0673 34.0678C30.8667 37.2684 26.5257 39.0665 21.9994 39.0665C21.4874 39.0665 20.9967 39.0665 20.4847 38.9812C19.482 40.5598 18.0314 41.7972 16.3247 42.5438C18.138 43.0558 20.0367 43.3332 21.9994 43.3332C24.8009 43.3332 27.575 42.7814 30.1633 41.7093C32.7515 40.6372 35.1033 39.0658 37.0843 37.0848C39.0653 35.1038 40.6367 32.752 41.7088 30.1638C42.7809 27.5755 43.3327 24.8014 43.3327 21.9998C43.3327 19.1983 42.7809 16.4242 41.7088 13.8359C40.6367 11.2476 39.0653 8.89588 37.0843 6.91489C35.1033 4.93391 32.7515 3.36251 30.1633 2.29041C27.575 1.21831 24.8009 0.666504 21.9994 0.666504ZM21.9994 26.2665C21.1247 26.2665 20.2714 26.3518 19.4607 26.5225C20.2074 27.8665 20.8687 29.2532 21.338 30.5332H21.9994C24.666 30.5332 26.9487 31.5998 27.9087 33.1572L30.938 30.1278C29.018 27.8025 25.7327 26.2665 21.9994 26.2665ZM29.466 13.4665C27.7594 13.4665 26.266 14.9598 26.266 16.6665C26.266 18.3732 27.7594 19.8665 29.466 19.8665C31.1727 19.8665 32.666 18.3732 32.666 16.6665C32.666 14.9598 31.1727 13.4665 29.466 13.4665ZM17.7327 16.6665C17.7327 14.9598 16.2393 13.4665 14.5327 13.4665C12.826 13.4665 11.3327 14.9598 11.3327 16.6665C11.3327 18.3732 12.826 19.8665 14.5327 19.8665C16.2393 19.8665 17.7327 18.3732 17.7327 16.6665Z" fill="white"/>
</svg>
