<svg width="64" height="64" viewBox="0 0 64 64" fill="none" xmlns="http://www.w3.org/2000/svg">
<path d="M31.9993 10.6665C29.1978 10.6665 26.4237 11.2183 23.8354 12.2904C21.2472 13.3625 18.8954 14.9339 16.9144 16.9149C12.9136 20.9157 10.666 26.3419 10.666 31.9998C10.666 37.6578 12.9136 43.084 16.9144 47.0848C18.8954 49.0658 21.2472 50.6372 23.8354 51.7093C26.4237 52.7814 29.1978 53.3332 31.9993 53.3332C37.6573 53.3332 43.0835 51.0856 47.0843 47.0848C51.0851 43.084 53.3327 37.6578 53.3327 31.9998C53.3327 29.1983 52.7809 26.4242 51.7088 23.8359C50.6367 21.2476 49.0653 18.8959 47.0843 16.9149C45.1033 14.9339 42.7515 13.3625 40.1633 12.2904C37.575 11.2183 34.8009 10.6665 31.9993 10.6665ZM31.9993 49.0665C27.473 49.0665 23.132 47.2684 19.9314 44.0678C16.7308 40.8672 14.9327 36.5262 14.9327 31.9998C14.9327 27.4735 16.7308 23.1325 19.9314 19.9319C23.132 16.7313 27.473 14.9332 31.9993 14.9332C36.5257 14.9332 40.8667 16.7313 44.0673 19.9319C47.2679 23.1325 49.066 27.4735 49.066 31.9998C49.066 36.5262 47.2679 40.8672 44.0673 44.0678C40.8667 47.2684 36.5257 49.0665 31.9993 49.0665ZM24.5327 29.8665C23.684 29.8665 22.8701 29.5294 22.2699 28.9292C21.6698 28.3291 21.3327 27.5152 21.3327 26.6665C21.3327 25.8178 21.6698 25.0039 22.2699 24.4038C22.8701 23.8036 23.684 23.4665 24.5327 23.4665C25.3814 23.4665 26.1953 23.8036 26.7954 24.4038C27.3955 25.0039 27.7327 25.8178 27.7327 26.6665C27.7327 27.5152 27.3955 28.3291 26.7954 28.9292C26.1953 29.5294 25.3814 29.8665 24.5327 29.8665ZM42.666 26.6665C42.666 27.5152 42.3289 28.3291 41.7288 28.9292C41.1286 29.5294 40.3147 29.8665 39.466 29.8665C38.6173 29.8665 37.8034 29.5294 37.2033 28.9292C36.6032 28.3291 36.266 27.5152 36.266 26.6665C36.266 25.8178 36.6032 25.0039 37.2033 24.4038C37.8034 23.8036 38.6173 23.4665 39.466 23.4665C40.3147 23.4665 41.1286 23.8036 41.7288 24.4038C42.3289 25.0039 42.666 25.8178 42.666 26.6665ZM40.5327 36.2665V40.5332H23.466V36.2665H40.5327Z" fill="white"/>
</svg>
