<svg width="65" height="64" viewBox="0 0 65 64" fill="none" xmlns="http://www.w3.org/2000/svg">
<path d="M49.834 31.9998C49.834 27.4735 48.0078 23.1325 44.7572 19.9319C41.5065 16.7313 37.0977 14.9332 32.5006 14.9332C27.9036 14.9332 23.4948 16.7313 20.2441 19.9319C16.9935 23.1325 15.1673 27.4735 15.1673 31.9998C15.1673 36.5262 16.9935 40.8672 20.2441 44.0678C23.4948 47.2684 27.9036 49.0665 32.5006 49.0665C37.0977 49.0665 41.5065 47.2684 44.7572 44.0678C48.0078 40.8672 49.834 36.5262 49.834 31.9998ZM54.1673 31.9998C54.1673 37.6578 51.8846 43.084 47.8213 47.0848C43.758 51.0856 38.247 53.3332 32.5006 53.3332C29.6553 53.3332 26.8379 52.7814 24.2092 51.7093C21.5805 50.6372 19.1919 49.0658 17.18 47.0848C13.1167 43.084 10.834 37.6578 10.834 31.9998C10.834 26.3419 13.1167 20.9157 17.18 16.9149C21.2433 12.9141 26.7543 10.6665 32.5006 10.6665C35.346 10.6665 38.1634 11.2183 40.7921 12.2904C43.4208 13.3625 45.8094 14.9339 47.8213 16.9149C49.8332 18.8959 51.4292 21.2476 52.518 23.8359C53.6069 26.4242 54.1673 29.1983 54.1673 31.9998ZM28.1673 26.6665C28.1673 28.3732 26.6507 29.8665 24.9173 29.8665C23.184 29.8665 21.6673 28.3732 21.6673 26.6665C21.6673 24.9598 23.184 23.4665 24.9173 23.4665C26.6507 23.4665 28.1673 24.9598 28.1673 26.6665ZM43.334 26.6665C43.334 28.3732 41.8173 29.8665 40.084 29.8665C38.3507 29.8665 36.834 28.3732 36.834 26.6665C36.834 24.9598 38.3507 23.4665 40.084 23.4665C41.8173 23.4665 43.334 24.9598 43.334 26.6665ZM32.5006 43.1572C28.709 43.1572 25.3723 41.5998 23.4223 39.2958L26.499 36.2665C27.474 37.8025 29.7923 38.8905 32.5006 38.8905C35.209 38.8905 37.5273 37.8025 38.5023 36.2665L41.579 39.2958C39.629 41.5998 36.2923 43.1572 32.5006 43.1572Z" fill="white"/>
</svg>
