<svg width="302" height="197" viewBox="0 0 302 197" fill="none" xmlns="http://www.w3.org/2000/svg">
<path d="M117.028 60.2042C141.907 30.0499 176.568 15.9584 214.124 36.4306C251.679 56.9028 291.595 103.423 273.609 136.418C255.622 169.414 211.938 167.977 174.382 147.505C136.827 127.033 66.3663 121.609 117.028 60.2042Z" fill="#91BCCE"/>
<path d="M246.59 171.525C239.919 185.159 228.94 193.693 214.887 189.546C200.834 185.399 184.404 171.712 188.551 157.659C192.698 143.606 207.694 140.045 221.746 144.192C235.799 148.339 260.174 143.759 246.59 171.525Z" fill="#C8DDE7"/>
<path d="M29.9222 134L43.6822 101.68C44.8822 99.04 47.3622 97.2 50.2422 96.96L58.0822 96.32V146.64H45.5222V121.44L34.8822 146.64H25.0422L15.0422 122.8V146.64H4.24219V100.8L15.0422 99.92L29.9222 134ZM72.8372 128.08C72.5972 128.96 72.4372 129.92 72.4372 130.88C72.4372 131.92 72.7572 133.04 73.4772 134.24C73.4772 134.24 73.6372 134.4 74.0372 134.8C75.2372 135.76 76.7572 136.32 78.6772 136.48C80.5172 136.48 82.1972 136.16 83.8772 135.44C84.7572 134.96 86.0372 134.16 87.6372 132.96L77.9572 122.08L76.3572 123.36L75.3972 124.24C75.0772 124.56 74.5972 125.12 74.0372 125.92C73.3172 126.8 72.9172 127.52 72.8372 128.08ZM62.6772 131.52C62.6772 128.24 63.5572 125.2 65.3972 122.4C66.8372 119.92 68.9972 117.52 71.8772 115.2L70.2772 113.44C68.1972 111.28 67.1572 108.56 67.1572 105.36C67.1572 104 67.3972 102.56 67.7972 101.04C68.6772 98.88 69.6372 97.12 70.8372 95.76L71.0772 95.52C73.8772 92.32 77.3172 90.4 81.5572 89.76C82.4372 89.6 83.3972 89.52 84.2772 89.52C87.3972 89.52 90.1172 90.4 92.4372 92.24C95.7172 94.56 97.3172 97.84 97.3172 101.92C97.3172 104.4 96.5972 106.88 95.0772 109.28C93.7172 111.44 91.7972 113.36 89.3972 114.96L86.8372 116.56L93.5572 123.92C93.6372 123.6 93.8772 122.96 94.1172 121.92C94.1972 121.52 94.3572 120.72 94.5972 119.44L94.9172 117.76L106.277 116.88V117.76L106.117 120.4C105.877 122.24 105.397 124.24 104.757 126.24C103.957 129.04 102.997 131.2 101.797 132.8L113.557 145.2L98.5172 145.36L94.4372 140.72C91.3972 142.88 88.7572 144.4 86.4372 145.2C83.6372 146.24 80.9172 146.72 78.1172 146.72C73.7172 146.72 69.9572 145.28 66.9972 142.4C64.1172 139.52 62.6772 135.92 62.6772 131.52ZM76.5972 104.88C76.5972 104.96 76.9972 105.68 77.7172 106.96C78.2772 108 79.2372 109.04 80.5172 110.08C80.5972 110.08 80.5972 110.08 80.6772 110C80.7572 109.92 80.8372 109.84 80.9972 109.76L82.5972 108.64L84.4372 106.88C84.8372 106.48 85.3172 105.76 85.8772 104.88C86.2772 104 86.5172 103.36 86.5172 102.88C86.5172 101.68 86.0372 100.64 85.1572 99.76C84.4372 99.2 83.4772 98.88 82.4372 98.88C80.5972 98.88 79.0772 99.52 78.0372 100.8C77.0772 101.84 76.5972 102.88 76.5972 104V104.24C76.5172 104.32 76.5172 104.56 76.5972 104.88ZM143.828 134L157.588 101.68C158.788 99.04 161.268 97.2 164.148 96.96L171.988 96.32V146.64H159.428V121.44L148.788 146.64H138.948L128.948 122.8V146.64H118.148V100.8L128.948 99.92L143.828 134ZM185.943 136.24L187.623 137.04C189.383 137.76 191.223 138.08 193.223 138.08C195.703 138.08 197.623 137.44 198.023 136.16C198.183 135.68 198.263 135.28 198.263 134.88C198.263 133.2 196.903 132.24 195.383 131.92C195.143 131.84 194.423 131.68 193.223 131.44C192.023 131.2 190.743 130.96 189.223 130.56C187.063 130.08 185.223 129.28 183.623 128.16C181.063 126.56 179.863 123.68 179.863 120.48C179.863 118.32 180.423 116.32 181.463 114.64C184.103 110.48 188.503 107.84 194.823 107.84C199.943 107.84 204.663 110.32 207.863 113.52L202.183 119.84C199.703 117.28 196.423 116.08 193.623 116.08C192.183 116.08 191.063 116.32 190.263 116.88C189.063 117.6 188.423 118.56 188.423 119.52C188.423 120.08 188.583 120.48 188.983 120.88C189.463 121.36 190.023 121.68 190.743 121.92C191.463 122.16 192.583 122.56 194.263 123.04C195.623 123.36 197.303 123.84 199.383 124.48C205.463 126.8 207.783 129.92 207.783 134.08C207.783 135.84 207.383 137.76 206.583 139.76C204.903 143.84 200.663 147.44 193.303 147.44C190.023 147.44 187.303 146.88 184.983 145.76C180.423 143.6 178.903 142.08 177.623 141.12L179.223 138.24C180.103 136.64 181.783 135.68 183.623 135.68C184.503 135.68 185.223 135.84 185.943 136.24Z" fill="black"/>
</svg>
